<svg width="787" height="728" viewBox="0 0 787 728" fill="none" xmlns="http://www.w3.org/2000/svg">
<g clip-path="url(#clip0_1755_619)">
<path d="M533.613 172.947H529.613V63.4021C529.613 46.5874 522.933 30.4613 511.043 18.5714C499.154 6.68159 483.028 0.00195313 466.213 0.00195312H234.127C217.313 0.00195313 201.187 6.68159 189.297 18.5714C177.407 30.4613 170.728 46.5874 170.728 63.4021V664.378C170.728 681.193 177.407 697.319 189.297 709.208C201.187 721.098 217.313 727.778 234.127 727.778H466.213C483.028 727.778 499.154 721.098 511.043 709.208C522.933 697.319 529.613 681.193 529.613 664.378V250.924H533.613V172.947Z" fill="#2F2E41"/>
<path d="M468.77 16.4941H438.476C439.869 19.91 440.402 23.6163 440.026 27.2865C439.65 30.9566 438.377 34.4779 436.319 37.54C434.261 40.6022 431.482 43.1112 428.226 44.8461C424.97 46.5809 421.337 47.4883 417.648 47.4882H284.689C281 47.4879 277.368 46.5804 274.113 44.8457C270.857 43.1109 268.078 40.6022 266.021 37.5405C263.963 34.4787 262.69 30.958 262.314 27.2883C261.937 23.6187 262.469 19.9128 263.862 16.4971H235.563C223.005 16.4971 210.962 21.4856 202.083 30.3651C193.203 39.2446 188.215 51.2878 188.215 63.8453V663.936C188.215 676.493 193.203 688.537 202.083 697.416C210.962 706.296 223.005 711.284 235.563 711.284H468.761C481.319 711.284 493.362 706.296 502.241 697.416C511.121 688.537 516.109 676.493 516.109 663.936V63.8423C516.109 51.2848 511.121 39.2416 502.241 30.3621C493.362 21.4826 481.319 16.4941 468.761 16.4941H468.77Z" fill="white"/>
<path d="M496.875 487.82H217.257C215.884 487.818 214.568 487.272 213.597 486.301C212.627 485.331 212.081 484.015 212.079 482.642V413.281C212.081 411.908 212.627 410.592 213.597 409.621C214.568 408.65 215.884 408.104 217.257 408.103H496.875C498.247 408.104 499.564 408.65 500.534 409.621C501.505 410.592 502.051 411.908 502.053 413.281V482.643C502.051 484.015 501.505 485.331 500.534 486.302C499.563 487.272 498.247 487.818 496.875 487.82ZM217.257 410.174C216.433 410.174 215.644 410.502 215.061 411.084C214.479 411.667 214.151 412.457 214.15 413.281V482.643C214.151 483.467 214.479 484.256 215.061 484.839C215.644 485.421 216.433 485.749 217.257 485.75H496.875C497.698 485.749 498.488 485.421 499.071 484.839C499.653 484.256 499.981 483.467 499.982 482.643V413.281C499.981 412.457 499.653 411.667 499.071 411.084C498.488 410.502 497.698 410.174 496.875 410.174H217.257Z" fill="#CCCCCC"/>
<path d="M253.503 469.708C265.514 469.708 275.251 459.971 275.251 447.96C275.251 435.949 265.514 426.212 253.503 426.212C241.492 426.212 231.755 435.949 231.755 447.96C231.755 459.971 241.492 469.708 253.503 469.708Z" fill="#CCCCCC"/>
<path d="M303.731 433.462C303.25 433.454 302.772 433.542 302.325 433.721C301.879 433.899 301.472 434.165 301.129 434.502C300.786 434.84 300.514 435.242 300.328 435.686C300.142 436.13 300.046 436.606 300.046 437.087C300.046 437.568 300.142 438.044 300.328 438.488C300.514 438.932 300.786 439.334 301.129 439.671C301.472 440.009 301.879 440.274 302.325 440.453C302.772 440.632 303.25 440.719 303.731 440.711H474.613C475.09 440.72 475.564 440.635 476.008 440.461C476.451 440.287 476.856 440.026 477.2 439.695C477.543 439.364 477.817 438.969 478.007 438.531C478.197 438.094 478.299 437.623 478.306 437.147C478.314 436.67 478.228 436.196 478.052 435.753C477.877 435.31 477.616 434.905 477.284 434.563C476.952 434.221 476.555 433.947 476.118 433.758C475.68 433.57 475.209 433.469 474.732 433.462H303.733H303.731Z" fill="#E6E6E6"/>
<path d="M303.73 455.211C302.769 455.211 301.847 455.593 301.167 456.273C300.487 456.953 300.105 457.875 300.105 458.836C300.105 459.797 300.487 460.719 301.167 461.399C301.847 462.079 302.769 462.461 303.73 462.461H474.613C475.089 462.47 475.563 462.385 476.007 462.211C476.451 462.036 476.856 461.776 477.199 461.445C477.542 461.114 477.816 460.718 478.006 460.281C478.196 459.843 478.298 459.373 478.306 458.896C478.314 458.419 478.227 457.946 478.052 457.502C477.876 457.059 477.615 456.655 477.283 456.312C476.951 455.97 476.555 455.697 476.117 455.508C475.679 455.319 475.208 455.219 474.732 455.212H303.732L303.73 455.211Z" fill="#E6E6E6"/>
<path d="M496.875 603.81H217.257C215.884 603.808 214.568 603.262 213.597 602.292C212.627 601.321 212.081 600.005 212.079 598.632V529.271C212.081 527.898 212.627 526.582 213.597 525.611C214.568 524.64 215.884 524.094 217.257 524.093H496.875C498.247 524.094 499.564 524.64 500.534 525.611C501.505 526.582 502.051 527.898 502.053 529.271V598.633C502.051 600.006 501.505 601.321 500.534 602.292C499.563 603.262 498.247 603.808 496.875 603.81ZM217.257 526.164C216.433 526.165 215.644 526.492 215.061 527.075C214.479 527.657 214.151 528.447 214.15 529.271V598.633C214.151 599.457 214.479 600.247 215.061 600.829C215.644 601.412 216.433 601.739 217.257 601.74H496.875C497.698 601.739 498.488 601.412 499.071 600.829C499.653 600.247 499.981 599.457 499.982 598.633V529.271C499.981 528.447 499.653 527.657 499.071 527.075C498.488 526.492 497.698 526.165 496.875 526.164H217.257Z" fill="#CCCCCC"/>
<path d="M253.503 585.699C265.514 585.699 275.251 575.962 275.251 563.951C275.251 551.94 265.514 542.203 253.503 542.203C241.492 542.203 231.755 551.94 231.755 563.951C231.755 575.962 241.492 585.699 253.503 585.699Z" fill="#CCCCCC"/>
<path d="M303.73 549.453C302.769 549.453 301.847 549.835 301.167 550.515C300.487 551.195 300.105 552.117 300.105 553.078C300.105 554.04 300.487 554.962 301.167 555.641C301.847 556.321 302.769 556.703 303.73 556.703H474.613C475.089 556.712 475.563 556.627 476.007 556.453C476.451 556.278 476.856 556.018 477.199 555.687C477.542 555.356 477.816 554.96 478.006 554.523C478.196 554.086 478.298 553.615 478.306 553.138C478.314 552.662 478.227 552.188 478.052 551.745C477.876 551.301 477.615 550.897 477.283 550.555C476.951 550.212 476.555 549.939 476.117 549.75C475.679 549.561 475.208 549.461 474.732 549.454H303.732L303.73 549.453Z" fill="#E6E6E6"/>
<path d="M303.73 571.201C302.769 571.201 301.847 571.583 301.167 572.263C300.487 572.943 300.105 573.865 300.105 574.826C300.105 575.788 300.487 576.71 301.167 577.389C301.847 578.069 302.769 578.451 303.73 578.451H474.613C475.089 578.46 475.563 578.375 476.007 578.201C476.451 578.026 476.856 577.766 477.199 577.435C477.542 577.104 477.816 576.708 478.006 576.271C478.196 575.834 478.298 575.363 478.306 574.886C478.314 574.41 478.227 573.936 478.052 573.493C477.876 573.049 477.615 572.645 477.283 572.303C476.951 571.961 476.555 571.687 476.117 571.498C475.679 571.309 475.208 571.209 474.732 571.202H303.732L303.73 571.201Z" fill="#E6E6E6"/>
<path d="M351.181 343.885C325.1 343.896 300.082 333.545 281.631 315.11C263.181 296.676 252.809 271.666 252.798 245.584V245.502C252.798 245.296 252.798 245.079 252.81 244.873C253.11 190.994 297.242 147.117 351.181 147.117C377.274 147.116 402.299 157.48 420.751 175.929C439.202 194.379 449.569 219.403 449.57 245.496C449.572 271.589 439.208 296.614 420.758 315.066C402.309 333.517 377.285 343.884 351.192 343.886H351.181V343.885ZM351.181 149.184C325.754 149.241 301.376 159.33 283.345 177.258C265.313 195.187 255.085 219.507 254.882 244.933C254.871 245.153 254.871 245.333 254.871 245.497C254.868 264.549 260.516 283.174 271.099 299.016C281.681 314.858 296.724 327.206 314.325 334.499C331.926 341.791 351.294 343.701 369.98 339.985C388.666 336.27 405.83 327.097 419.303 313.626C432.775 300.155 441.95 282.992 445.668 264.306C449.386 245.62 447.479 226.252 440.189 208.65C432.899 191.048 420.552 176.004 404.712 165.419C388.871 154.834 370.247 149.184 351.195 149.184H351.181Z" fill="#CCCCCC"/>
<path d="M402.16 287.158H302.548C302.423 287.159 302.299 287.149 302.176 287.128L349.288 205.527C349.575 205.02 349.993 204.597 350.497 204.303C351.001 204.009 351.575 203.854 352.159 203.854C352.742 203.854 353.316 204.009 353.82 204.303C354.324 204.597 354.742 205.02 355.03 205.527L386.647 260.291L388.162 262.911L402.16 287.158Z" fill="#FD7E14"/>
<path d="M638.288 156.49C638.289 157.453 638.192 158.414 637.999 159.358C635.366 160.475 632.535 161.05 629.675 161.05C626.814 161.05 623.983 160.475 621.35 159.358C621.157 158.414 621.06 157.453 621.061 156.49C621.061 151.484 623.61 147.253 627.121 145.839C625.719 145.249 624.564 144.192 623.852 142.848C623.141 141.504 622.916 139.955 623.217 138.464C623.518 136.973 624.325 135.633 625.502 134.669C626.679 133.706 628.153 133.18 629.674 133.18C631.195 133.18 632.669 133.706 633.846 134.669C635.023 135.633 635.83 136.973 636.131 138.464C636.432 139.955 636.207 141.504 635.496 142.848C634.784 144.192 633.629 145.249 632.228 145.839C635.74 147.253 638.288 151.484 638.288 156.49Z" fill="#FD7E14"/>
<path d="M75.6144 370.89L157.735 453.659H196.505V454.959H157.192L157.001 454.766L74.6895 371.803L75.6144 370.89Z" fill="#CCCCCC"/>
<path d="M48.4268 386.141C43.7987 386.143 39.2155 385.234 34.9389 383.464C30.6624 381.695 26.7762 379.1 23.5023 375.829C20.2284 372.558 17.6308 368.674 15.858 364.399C14.0852 360.124 13.1718 355.541 13.1699 350.913V350.884C13.1699 350.81 13.1699 350.732 13.1699 350.659C13.2144 343.696 15.3199 336.901 19.2209 331.133C23.1218 325.365 28.6436 320.881 35.0897 318.247C41.5359 315.613 48.6177 314.946 55.4419 316.332C62.2662 317.718 68.5273 321.093 73.4355 326.033C78.3438 330.973 81.6794 337.255 83.0217 344.088C84.3639 350.921 83.6527 357.999 80.9777 364.428C78.3027 370.857 73.7838 376.35 67.9908 380.215C62.1978 384.079 55.3903 386.141 48.4268 386.141ZM48.4268 316.368C39.3145 316.388 30.5785 320.004 24.1168 326.429C17.655 332.854 13.9896 341.569 13.9169 350.681C13.9169 350.76 13.9169 350.824 13.9169 350.881C13.9161 357.708 15.94 364.383 19.7324 370.06C23.5249 375.737 28.9158 380.162 35.2232 382.775C41.5306 385.389 48.4714 386.073 55.1676 384.741C61.8639 383.41 68.0149 380.123 72.8428 375.295C77.6708 370.468 80.9588 364.317 82.291 357.621C83.6233 350.925 82.9399 343.984 80.3274 337.676C77.7149 331.368 73.2905 325.977 67.6138 322.184C61.9371 318.391 55.2631 316.366 48.4358 316.366L48.4268 316.368Z" fill="#3F3D56"/>
<path d="M75.6144 494.072L157.735 576.841H196.505V578.142H157.192L157.001 577.948L74.6895 494.986L75.6144 494.072Z" fill="#CCCCCC"/>
<path d="M48.4268 437.891C43.7987 437.889 39.2155 438.798 34.9389 440.568C30.6624 442.337 26.7762 444.931 23.5023 448.203C20.2284 451.474 17.6308 455.358 15.858 459.633C14.0852 463.908 13.1718 468.491 13.1699 473.119V473.148C13.1699 473.222 13.1699 473.3 13.1699 473.373C13.2144 480.336 15.3199 487.131 19.2209 492.899C23.1218 498.667 28.6436 503.151 35.0897 505.785C41.5359 508.419 48.6177 509.085 55.4419 507.7C62.2662 506.314 68.5273 502.938 73.4355 497.999C78.3438 493.059 81.6794 486.777 83.0217 479.944C84.3639 473.111 83.6527 466.033 80.9777 459.604C78.3027 453.175 73.7838 447.681 67.9908 443.817C62.1978 439.953 55.3903 437.891 48.4268 437.891ZM48.4268 507.664C39.3145 507.643 30.5785 504.028 24.1168 497.603C17.655 491.178 13.9896 482.463 13.9169 473.351C13.9169 473.272 13.9169 473.208 13.9169 473.151C13.9159 466.323 15.9397 459.649 19.7323 453.971C23.5248 448.294 28.9158 443.869 35.2235 441.255C41.5311 438.642 48.472 437.958 55.1685 439.29C61.8649 440.621 68.016 443.909 72.8439 448.737C77.6718 453.564 80.9596 459.716 82.2915 466.412C83.6233 473.108 82.9394 480.049 80.3263 486.357C77.7132 492.665 73.2882 498.056 67.611 501.849C61.9338 505.642 55.2593 507.666 48.4318 507.665L48.4268 507.664Z" fill="#3F3D56"/>
<path d="M59.3545 367.13V348.384H55.5965V367.13H59.3545Z" fill="#CCCCCC"/>
<path d="M50.3076 367.133V334.64H46.5496V367.133H50.3076Z" fill="#FD7E14"/>
<path d="M41.2607 367.132V342.735H37.5028V367.132H41.2607Z" fill="#FD7E14"/>
<path opacity="0.8" d="M37.3149 477.084C39.4887 477.084 41.2509 475.322 41.2509 473.148C41.2509 470.974 39.4887 469.212 37.3149 469.212C35.1411 469.212 33.3789 470.974 33.3789 473.148C33.3789 475.322 35.1411 477.084 37.3149 477.084Z" fill="#FD7E14"/>
<path opacity="0.4" d="M59.5424 477.084C61.7162 477.084 63.4784 475.322 63.4784 473.148C63.4784 470.974 61.7162 469.212 59.5424 469.212C57.3686 469.212 55.6064 470.974 55.6064 473.148C55.6064 475.322 57.3686 477.084 59.5424 477.084Z" fill="#FD7E14"/>
<path d="M621.95 522.227C621.627 522.387 621.381 522.666 621.267 523.001C621.153 523.336 621.18 523.701 621.342 524.015L628.518 537.83C628.682 538.144 628.967 538.381 629.311 538.489C629.656 538.598 630.032 538.569 630.356 538.41L655.229 526.12C655.553 525.959 655.799 525.681 655.913 525.346C656.027 525.011 655.999 524.646 655.837 524.332L648.661 510.517C648.498 510.203 648.212 509.966 647.868 509.857C647.523 509.749 647.148 509.777 646.823 509.937L621.95 522.227Z" fill="#FD7E14"/>
<path d="M647.341 516.744L627.234 525.718C627.122 525.768 626.996 525.772 626.882 525.73C626.767 525.689 626.675 525.604 626.625 525.495C626.574 525.386 626.57 525.262 626.613 525.15C626.656 525.038 626.742 524.948 626.853 524.898L646.96 515.924C647.071 515.875 647.198 515.871 647.312 515.912C647.426 515.954 647.519 516.039 647.569 516.148C647.62 516.256 647.624 516.38 647.581 516.492C647.538 516.604 647.451 516.695 647.34 516.745L647.341 516.744Z" fill="white"/>
<path d="M648.834 520.097L628.727 529.071C628.616 529.12 628.489 529.125 628.375 529.083C628.261 529.041 628.168 528.956 628.118 528.848C628.067 528.739 628.063 528.615 628.106 528.503C628.149 528.391 628.236 528.3 628.347 528.251L648.454 519.277C648.565 519.227 648.691 519.223 648.805 519.265C648.92 519.307 649.012 519.391 649.062 519.5C649.113 519.609 649.117 519.733 649.074 519.845C649.031 519.957 648.945 520.048 648.834 520.097L648.834 520.097Z" fill="white"/>
<path d="M650.327 523.449L630.22 532.422C630.109 532.472 629.982 532.476 629.868 532.434C629.754 532.393 629.661 532.308 629.611 532.199C629.561 532.09 629.556 531.966 629.599 531.854C629.642 531.742 629.729 531.652 629.84 531.602L649.947 522.629C650.058 522.579 650.184 522.575 650.299 522.616C650.413 522.658 650.505 522.743 650.556 522.852C650.606 522.96 650.61 523.085 650.567 523.197C650.524 523.308 650.438 523.399 650.327 523.449Z" fill="white"/>
<path opacity="0.6" d="M48.4291 477.084C50.6029 477.084 52.3651 475.322 52.3651 473.148C52.3651 470.974 50.6029 469.212 48.4291 469.212C46.2554 469.212 44.4932 470.974 44.4932 473.148C44.4932 475.322 46.2554 477.084 48.4291 477.084Z" fill="#FD7E14"/>
<path d="M758.877 512.769C758.288 511.57 757.969 510.257 757.943 508.921C757.917 507.585 758.184 506.26 758.725 505.039C759.267 503.817 760.069 502.73 761.076 501.852C762.084 500.974 763.271 500.328 764.555 499.959L766.312 467.534L779.872 477.569L776.124 506.822C776.601 509.02 776.256 511.317 775.153 513.277C774.049 515.238 772.266 516.725 770.139 517.458C768.012 518.191 765.691 518.118 763.614 517.253C761.538 516.388 759.851 514.792 758.873 512.766L758.877 512.769Z" fill="#FFB7B7"/>
<path d="M653.797 518.8C654.564 517.706 655.081 516.457 655.313 515.141C655.545 513.826 655.485 512.475 655.138 511.185C654.792 509.895 654.166 508.697 653.307 507.674C652.447 506.652 651.373 505.831 650.161 505.268L653.424 472.96L638.475 480.787L637.668 510.268C636.857 512.366 636.845 514.689 637.632 516.796C638.42 518.904 639.954 520.649 641.942 521.7C643.93 522.752 646.236 523.038 648.421 522.503C650.606 521.969 652.519 520.651 653.797 518.8Z" fill="#FFB7B7"/>
<path d="M733.575 717.426H722.895L717.813 676.226H733.577L733.575 717.426Z" fill="#FFB7B7"/>
<path d="M736.301 713.938H715.266C711.713 713.939 708.305 715.351 705.792 717.864C703.28 720.376 701.868 723.784 701.866 727.338V727.774H736.305L736.301 713.938Z" fill="#2F2E41"/>
<path d="M679.632 711.011L669.188 713.249L655.588 674.029L671.002 670.729L679.632 711.011Z" fill="#FFB7B7"/>
<path d="M681.566 707.029L660.998 711.436C659.276 711.805 657.645 712.509 656.195 713.509C654.746 714.508 653.508 715.783 652.551 717.261C651.595 718.739 650.939 720.391 650.621 722.122C650.303 723.854 650.329 725.631 650.698 727.352L650.789 727.778L684.464 720.563L681.566 707.029Z" fill="#2F2E41"/>
<path d="M752.834 481.663C752.834 481.663 764.196 516.782 753.069 556.496L741.742 604.069L738.931 709.333L715.994 701.97L706.649 541.412L663.608 614.469L686.262 701.97L660.21 702.819L632.078 608.191L656.812 519.891L661.343 498.37L752.834 481.663Z" fill="#2F2E41"/>
<path d="M659.971 365.032L682.785 352.032L722.252 349.751L749.629 364.124L738.503 440.449C738.503 440.449 759.723 470.903 751.986 491.194C742.437 516.238 658.941 529.303 660.574 504.862C663.151 466.292 667.132 468.952 670.05 450.038C673.25 429.285 650.844 402.675 650.844 402.675L659.971 365.032Z" fill="#FD7E14"/>
<path d="M741.188 371.648L743.731 360.626C743.731 360.626 754.58 362.026 762.099 383.031C769.618 404.036 782.983 448.303 782.983 448.303L782.283 464.386C782.283 464.386 787.434 470.337 783.883 473.055C780.332 475.773 790.302 479.455 785.252 483.321C783.035 485.02 781.355 487.323 780.416 489.954C779.477 492.585 779.319 495.431 779.959 498.15L764.445 493.359L765.586 468.035L759.44 448.073L743.014 398.11L741.188 371.648Z" fill="#FD7E14"/>
<path d="M668.328 373.526L664.872 362.837C664.872 362.837 658.508 360.237 653.81 374.909C649.112 389.581 646.882 426.724 646.882 426.724L637.756 470.995C637.756 470.995 634.346 476.633 636.156 478.249C637.966 479.865 628.193 482.137 633.875 485.131C639.557 488.125 633.385 484.486 635.508 491.312C636.902 495.795 635.472 498.151 635.472 498.151L653.039 494.617L657.83 471.924L668.697 429.732L668.328 373.526Z" fill="#FD7E14"/>
<path d="M702.433 340.15C719.166 340.15 732.73 326.585 732.73 309.852C732.73 293.119 719.166 279.554 702.433 279.554C685.7 279.554 672.135 293.119 672.135 309.852C672.135 326.585 685.7 340.15 702.433 340.15Z" fill="#2F2E41"/>
<path d="M705.545 290.995C712.064 284.384 719.954 279.283 728.658 276.049C734.245 273.979 740.326 272.7 746.167 273.876C752.008 275.052 757.532 279.092 759.162 284.823C760.494 289.509 759.119 294.555 757.051 298.967C754.983 303.38 752.222 307.468 750.551 312.046C748.845 316.714 748.332 321.736 749.058 326.653C749.785 331.571 751.728 336.229 754.711 340.205C757.694 344.181 761.623 347.349 766.141 349.422C770.66 351.495 775.624 352.406 780.584 352.074C774.845 352.844 769.554 355.541 763.945 356.974C758.336 358.407 751.714 358.312 747.545 354.293C743.134 350.041 743.045 343.127 743.259 337.004L744.21 309.698C744.372 305.056 744.51 300.266 742.836 295.933C741.162 291.599 737.184 287.806 732.536 287.845C729.016 287.875 725.9 290.007 723.078 292.11C720.256 294.213 717.267 296.457 713.761 296.769C710.255 297.081 706.252 294.487 706.514 290.977L705.545 290.995Z" fill="#2F2E41"/>
<path d="M718.955 310.291C713.047 299.483 699.497 295.511 688.689 301.419C677.881 307.327 673.909 320.878 679.817 331.686C685.725 342.494 699.276 346.466 710.084 340.558C720.891 334.65 724.863 321.099 718.955 310.291Z" fill="#FFB7B7"/>
<path d="M668.02 319.299H700.219L700.549 314.675L702.2 319.299H707.159L707.813 310.135L711.086 319.299H720.686V318.845C720.679 312.466 718.142 306.349 713.631 301.838C709.119 297.327 703.003 294.789 696.623 294.782H692.083C685.704 294.789 679.587 297.327 675.076 301.838C670.565 306.349 668.028 312.466 668.021 318.845L668.02 319.299Z" fill="#2F2E41"/>
<path d="M715.822 335.92L727.582 324.147L729.565 298.086H703.604L704.247 298.728C713.189 307.658 722.842 320.763 715.822 335.92Z" fill="#2F2E41"/>
<path d="M769.507 727.78H1.03417C0.768959 727.78 0.514606 727.675 0.327071 727.487C0.139535 727.3 0.0341797 727.045 0.0341797 726.78C0.0341797 726.515 0.139535 726.261 0.327071 726.073C0.514606 725.886 0.768959 725.78 1.03417 725.78H769.507C769.772 725.78 770.027 725.886 770.214 726.073C770.402 726.261 770.507 726.515 770.507 726.78C770.507 727.045 770.402 727.3 770.214 727.487C770.027 727.675 769.772 727.78 769.507 727.78Z" fill="#E6E6E6"/>
<path d="M78.0728 699.356C80.1472 700.085 82.3746 700.268 84.5402 699.886C86.7058 699.505 88.7366 698.572 90.4368 697.177C94.7668 693.542 96.1248 687.554 97.2297 682.009L100.498 665.609L93.6568 670.32C88.7368 673.708 83.7068 677.204 80.3008 682.11C76.8948 687.016 75.4079 693.71 78.1449 699.024" fill="#E6E6E6"/>
<path d="M79.1288 720.352C78.2678 714.079 77.3818 707.725 77.9858 701.385C78.3786 695.731 80.3738 690.306 83.7378 685.745C85.5942 683.356 87.853 681.309 90.4128 679.696C91.0808 679.275 91.6948 680.333 91.0298 680.752C86.6004 683.551 83.1745 687.685 81.2458 692.557C79.1158 697.975 78.7738 703.881 79.1408 709.636C79.3628 713.116 79.8328 716.574 80.3078 720.027C80.345 720.183 80.3217 720.347 80.2424 720.487C80.1632 720.627 80.034 720.731 79.8808 720.779C79.7245 720.821 79.5579 720.8 79.4171 720.72C79.2763 720.64 79.1727 720.508 79.1288 720.352Z" fill="#F2F2F2"/>
<path d="M85.3262 710.287C86.2159 711.639 87.4388 712.739 88.8771 713.481C90.3154 714.224 91.9206 714.583 93.5381 714.525C97.6951 714.325 101.161 711.425 104.281 708.672L113.509 700.525L107.402 700.233C103.01 700.023 98.5021 699.827 94.3221 701.181C90.1421 702.535 86.2812 705.795 85.5162 710.125" fill="#E6E6E6"/>
<path d="M76.6947 723.958C80.8396 716.623 85.6476 708.472 94.2386 705.866C96.6272 705.144 99.1318 704.885 101.618 705.104C102.401 705.172 102.206 706.379 101.424 706.312C97.2567 705.966 93.0981 707.066 89.6476 709.428C86.4038 711.781 83.6538 714.749 81.5536 718.163C80.2136 720.204 79.0126 722.332 77.8117 724.457C77.4287 725.136 76.3067 724.646 76.6947 723.958Z" fill="#F2F2F2"/>
<path d="M629.777 182.371C625.149 182.373 620.566 181.463 616.289 179.694C612.013 177.924 608.127 175.33 604.853 172.059C601.579 168.787 598.981 164.903 597.209 160.628C595.436 156.353 594.522 151.771 594.521 147.143V147.114C594.521 147.04 594.521 146.962 594.521 146.889C594.565 139.925 596.67 133.131 600.571 127.362C604.472 121.594 609.994 117.11 616.44 114.476C622.886 111.842 629.968 111.176 636.793 112.562C643.617 113.947 649.878 117.323 654.786 122.262C659.694 127.202 663.03 133.485 664.372 140.318C665.715 147.151 665.003 154.228 662.328 160.657C659.653 167.087 655.134 172.58 649.341 176.444C643.548 180.308 636.741 182.371 629.777 182.371ZM629.777 112.597C620.665 112.618 611.929 116.233 605.467 122.658C599.006 129.083 595.34 137.799 595.268 146.911C595.268 146.99 595.268 147.054 595.268 147.111C595.267 153.938 597.291 160.612 601.083 166.289C604.876 171.967 610.266 176.392 616.574 179.005C622.881 181.618 629.822 182.302 636.518 180.971C643.214 179.639 649.365 176.352 654.193 171.525C659.021 166.697 662.309 160.547 663.642 153.85C664.974 147.154 664.291 140.213 661.678 133.906C659.065 127.598 654.641 122.206 648.964 118.413C643.288 114.62 636.614 112.595 629.786 112.595L629.777 112.597Z" fill="#3F3D56"/>
<path d="M593.594 161.428L511.474 244.197H472.704V245.497H512.017L512.208 245.304L594.519 162.342L593.594 161.428Z" fill="#CCCCCC"/>
</g>
<defs>
<clipPath id="clip0_1755_619">
<rect width="786.71" height="727.78" fill="white"/>
</clipPath>
</defs>
</svg>
